# xmcd CD database file
#
# Track frame offsets:
#	150
#	15670
#	30555
#	42435
#	57200
#	73157
#	86087
#	97990
#	115980
#	131125
#
# Disc length: 1938 seconds
#
# Revision: 0
# Processed by: cddbd v1.5.1PL0 Copyright (c) Steve Scherf et al.
# Submitted via: NeoAudio 9.9.9
#
DISCID=8607900a
DTITLE=Wendy Ann - Someday
DYEAR=1900
DGENRE=Country
TTITLE0=dancers
TTITLE1=bank on that
TTITLE2=see lf l care
TTITLE3=recipe for a heartache
TTITLE4=someday l'll see you again
TTITLE5=jump into the darkness
TTITLE6=l'm sorry,but l'm not sorry
TTITLE7=why won't you see
TTITLE8=the rest of my life with you
TTITLE9=clumsy man
EXTD=
EXTT0=
EXTT1=
EXTT2=
EXTT3=
EXTT4=
EXTT5=
EXTT6=
EXTT7=
EXTT8=
EXTT9=
PLAYORDER=
